<svg xmlns="http://www.w3.org/2000/svg" viewBox="0 0 256 256" width="256" height="256">
  <defs>
    <!-- Subtle vertical gradient — Apple icons rarely use a flat fill. -->
    <linearGradient id="bgLight" x1="0" y1="0" x2="0" y2="1">
      <stop offset="0" stop-color="#ffffff"/>
      <stop offset="1" stop-color="#eceef1"/>
    </linearGradient>
    <linearGradient id="bgDark" x1="0" y1="0" x2="0" y2="1">
      <stop offset="0" stop-color="#23262a"/>
      <stop offset="1" stop-color="#14171a"/>
    </linearGradient>
    <!-- iOS continuous-corner squircle (n≈5 superellipse approximation
         via asymmetric cubic beziers; ~22% radius, 0.6 smoothness factor). -->
    <clipPath id="iconShape">
      <path d="M 92.16000000000001 0 L 163.83999999999997 0 C 221.44 0 256 34.56 256 92.16000000000001 L 256 163.83999999999997 C 256 221.44 221.44 256 163.83999999999997 256 L 92.16000000000001 256 C 34.56 256 0 221.44 0 163.83999999999997 L 0 92.16000000000001 C 0 34.56 34.56 0 92.16000000000001 0 Z"/>
    </clipPath>
  </defs>
  <style>
    .bg { fill: url(#bgLight); }
    .accent { fill: #012169; }
    .base   { fill: #6e6e73; }
    @media (prefers-color-scheme: dark) {
      .bg { fill: url(#bgDark); }
      .accent { fill: #0577B1; }
      .base   { fill: #adb5bd; }
    }
  </style>
  <g clip-path="url(#iconShape)">
    <path class="bg" d="M 92.16000000000001 0 L 163.83999999999997 0 C 221.44 0 256 34.56 256 92.16000000000001 L 256 163.83999999999997 C 256 221.44 221.44 256 163.83999999999997 256 L 92.16000000000001 256 C 34.56 256 0 221.44 0 163.83999999999997 L 0 92.16000000000001 C 0 34.56 34.56 0 92.16000000000001 0 Z"/>
    <!-- SR monogram — SF Pro outlines at opsz=28, tracked -0.04 em and centred
         by advance span. Generated by tools/gen-icon.py; edit that, never this.
         Hierarchy is colour-only (.accent vs .base). The S is wght=680 and the R
         wght=600: optical compensation for the S's lighter letterform, not a
         hierarchy signal. -->
    <g transform="translate(48.536 174.080) scale(0.063867 -0.063867)">
      <path class="accent" d="M644.6666666666666 -24.933333333333334Q474.2 -24.933333333333334 347.3 25.199999999999996Q220.4 75.33333333333333 147.63333333333333 169.76666666666665Q74.86666666666666 264.2 66.33333333333333 396.06666666666666L65.33333333333333 412.4H343.3333333333333L345.3333333333333 400.73333333333335Q355.4 344.1333333333333 396.4 302.6Q437.4 261.06666666666666 503.1333333333333 238.16666666666666Q568.8666666666667 215.26666666666665 652.3333333333334 215.26666666666665Q737.6666666666666 215.26666666666665 799.4333333333334 238.46666666666667Q861.2 261.6666666666667 895.0 304.0666666666667Q928.8 346.4666666666667 928.8 402.73333333333335V403.73333333333335Q928.8 478.2 870.7333333333333 520.7333333333333Q812.6666666666666 563.2666666666667 677.2 591.1333333333333L524.2 621.9333333333333Q382.26666666666665 650.6 287.0333333333333 705.2666666666667Q191.8 759.9333333333333 144.0 841.4666666666667Q96.2 923 96.2 1031.2666666666667V1032.2666666666667Q96.73333333333333 1163.4 167.1 1261.1333333333332Q237.46666666666667 1358.8666666666666 361.06666666666666 1413.4Q484.6666666666667 1467.9333333333334 643.4 1467.9333333333334Q808.6666666666666 1467.9333333333334 929.4666666666667 1415.8000000000002Q1050.2666666666667 1363.6666666666667 1118.4 1269.2333333333333Q1186.5333333333333 1174.8 1193.6 1048.8666666666666L1194.6 1030.6H916.6L915.0666666666667 1042.7333333333333Q907.3333333333334 1100.8666666666666 871.5666666666666 1141.9Q835.8 1182.9333333333334 777.5 1205.3333333333335Q719.2 1227.7333333333333 643.0666666666667 1227.7333333333333Q564.8 1227.7333333333333 507.96666666666664 1205.0333333333333Q451.1333333333333 1182.3333333333333 420.73333333333335 1142.2333333333333Q390.3333333333333 1102.1333333333334 390.3333333333333 1049.4V1048.4Q390.3333333333333 1002 416.1 967.5Q441.8666666666667 933 495.6333333333333 908.7333333333333Q549.4 884.4666666666667 633.1333333333333 867.2L786.1333333333333 836.4Q937.4 806.2666666666667 1033.8666666666666 753.2666666666667Q1130.3333333333333 700.2666666666667 1176.6333333333332 619.9Q1222.9333333333334 539.5333333333333 1222.9333333333334 426.26666666666665V425.26666666666665Q1222.9333333333334 287.4666666666667 1153.7666666666667 186.23333333333335Q1084.6 85 955.0666666666666 30.03333333333333Q825.5333333333333 -24.933333333333334 644.6666666666666 -24.933333333333334Z"/>
    </g>
    <g transform="translate(125.522 174.080) scale(0.063867 -0.063867)">
      <path class="base" d="M126.66666666666667 0V1443H704Q858.6666666666666 1443 970.1666666666667 1388.3333333333335Q1081.6666666666667 1333.6666666666667 1141.6666666666667 1232.6666666666667Q1201.6666666666667 1131.6666666666667 1201.6666666666667 991.6666666666666V989.6666666666666Q1201.6666666666667 844.6666666666666 1128.8333333333335 734.3333333333333Q1056 624 931 578.3333333333334L1245 0H946.3333333333334L664.3333333333334 538.6666666666666Q661 538.6666666666666 657.6666666666667 538.6666666666666Q654.3333333333334 538.6666666666666 650.6666666666666 538.6666666666666H388V0ZM388 744.3333333333334H677Q798.3333333333334 744.3333333333334 866.0 808.6666666666667Q933.6666666666666 873 933.6666666666666 988V990Q933.6666666666666 1102.3333333333333 863.0 1167.1666666666665Q792.3333333333334 1232 671.6666666666666 1232H388Z"/>
    </g>
  </g>
</svg>
