<svg xmlns="http://www.w3.org/2000/svg" viewBox="0 0 256 256" width="256" height="256">
  <defs>
    <!-- Subtle vertical gradient — Apple icons rarely use a flat fill. -->
    <linearGradient id="bgLight" x1="0" y1="0" x2="0" y2="1">
      <stop offset="0" stop-color="#ffffff"/>
      <stop offset="1" stop-color="#eceef1"/>
    </linearGradient>
    <linearGradient id="bgDark" x1="0" y1="0" x2="0" y2="1">
      <stop offset="0" stop-color="#23262a"/>
      <stop offset="1" stop-color="#14171a"/>
    </linearGradient>
    <!-- iOS continuous-corner squircle (n≈5 superellipse approximation
         via asymmetric cubic beziers; ~22% radius, 0.6 smoothness factor). -->
    <clipPath id="iconShape">
      <path d="M 92.16000000000001 0 L 163.83999999999997 0 C 221.44 0 256 34.56 256 92.16000000000001 L 256 163.83999999999997 C 256 221.44 221.44 256 163.83999999999997 256 L 92.16000000000001 256 C 34.56 256 0 221.44 0 163.83999999999997 L 0 92.16000000000001 C 0 34.56 34.56 0 92.16000000000001 0 Z"/>
    </clipPath>
  </defs>
  <style>
    .bg { fill: url(#bgLight); }
    .accent { fill: #012169; }
    .base   { fill: #6e6e73; }
    @media (prefers-color-scheme: dark) {
      .bg { fill: url(#bgDark); }
      .accent { fill: #0577B1; }
      .base   { fill: #adb5bd; }
    }
  </style>
  <g clip-path="url(#iconShape)">
    <path class="bg" d="M 92.16000000000001 0 L 163.83999999999997 0 C 221.44 0 256 34.56 256 92.16000000000001 L 256 163.83999999999997 C 256 221.44 221.44 256 163.83999999999997 256 L 92.16000000000001 256 C 34.56 256 0 221.44 0 163.83999999999997 L 0 92.16000000000001 C 0 34.56 34.56 0 92.16000000000001 0 Z"/>
    <!-- SR monogram — SF Pro outlines, both letters at wght=600 / opsz=28,
         tracked -0.04 em and centred by advance span. Generated by
         tools/gen-icon.py; edit that, never this. Hierarchy is colour-only
         (.accent vs .base) — the two letters are the same weight. -->
    <g transform="translate(49.196 174.080) scale(0.063867 -0.063867)">
      <path class="accent" d="M635.3333333333334 -24.666666666666668Q469 -24.666666666666668 344.5 25.0Q220 74.66666666666667 148.16666666666666 167.83333333333334Q76.33333333333333 261 67.66666666666667 390.3333333333333L66.66666666666667 406H316.66666666666663L318.66666666666663 393.6666666666667Q329 332.6666666666667 372.0 288.0Q415 243.33333333333331 484.6666666666667 218.83333333333331Q554.3333333333334 194.33333333333331 643.6666666666666 194.33333333333331Q734.3333333333334 194.33333333333331 800.1666666666667 219.33333333333331Q866 244.33333333333331 902.0 290.3333333333333Q938 336.3333333333333 938 397.6666666666667V398.6666666666667Q938 479 877.6666666666667 525.6666666666667Q817.3333333333334 572.3333333333334 678 601.6666666666666L523 633.6666666666666Q381.3333333333333 663 287.16666666666663 717.3333333333333Q193 771.6666666666666 146.0 852.3333333333333Q99 933 99 1040.3333333333333V1041.3333333333333Q99.66666666666667 1169 168.5 1264.6666666666665Q237.33333333333334 1360.3333333333333 358.3333333333333 1414.0Q479.3333333333333 1467.6666666666667 635 1467.6666666666667Q793.3333333333334 1467.6666666666667 911.3333333333333 1416.0Q1029.3333333333333 1364.3333333333333 1097.0 1271.1666666666665Q1164.6666666666667 1178 1172 1054.3333333333333L1173 1037H923L921.3333333333334 1049.6666666666667Q912.6666666666666 1112.3333333333333 874.8333333333333 1156.5Q837 1200.6666666666667 775.5 1224.6666666666667Q714 1248.6666666666667 633.3333333333334 1248.6666666666667Q550 1248.6666666666667 488.83333333333337 1224.1666666666667Q427.6666666666667 1199.6666666666667 394.66666666666663 1156.1666666666667Q361.66666666666663 1112.6666666666667 361.66666666666663 1055V1054Q361.66666666666663 1004 388.5 966.5Q415.3333333333333 929 471.16666666666663 902.6666666666667Q527 876.3333333333334 613.6666666666666 858L768.6666666666666 826Q919 795.3333333333334 1014.3333333333334 742.3333333333334Q1109.6666666666667 689.3333333333334 1155.1666666666667 609.5Q1200.6666666666667 529.6666666666666 1200.6666666666667 417.3333333333333V416.3333333333333Q1200.6666666666667 281.3333333333333 1132.8333333333335 182.16666666666666Q1065 83 938.3333333333333 29.166666666666664Q811.6666666666666 -24.666666666666668 635.3333333333334 -24.666666666666668Z"/>
    </g>
    <g transform="translate(124.862 174.080) scale(0.063867 -0.063867)">
      <path class="base" d="M126.66666666666667 0V1443H704Q858.6666666666666 1443 970.1666666666667 1388.3333333333335Q1081.6666666666667 1333.6666666666667 1141.6666666666667 1232.6666666666667Q1201.6666666666667 1131.6666666666667 1201.6666666666667 991.6666666666666V989.6666666666666Q1201.6666666666667 844.6666666666666 1128.8333333333335 734.3333333333333Q1056 624 931 578.3333333333334L1245 0H946.3333333333334L664.3333333333334 538.6666666666666Q661 538.6666666666666 657.6666666666667 538.6666666666666Q654.3333333333334 538.6666666666666 650.6666666666666 538.6666666666666H388V0ZM388 744.3333333333334H677Q798.3333333333334 744.3333333333334 866.0 808.6666666666667Q933.6666666666666 873 933.6666666666666 988V990Q933.6666666666666 1102.3333333333333 863.0 1167.1666666666665Q792.3333333333334 1232 671.6666666666666 1232H388Z"/>
    </g>
  </g>
</svg>
